<?xml version="1.0" ?><svg viewBox="0 0 48 48" xmlns="http://www.w3.org/2000/svg"><defs><style>.cls-1{fill:none;stroke:#231f20;stroke-miterlimit:10;stroke-width:2px;}.cls-2{fill:#231f20;}</style></defs><title/><g data-name="01 - PS" id="_01_-_PS"><rect class="cls-1" height="33.92" rx="3" width="33.92" x="7.04" y="7.04"/><path class="cls-2" d="M18.3,16V32.67H15.17V16Z"/><path class="cls-2" d="M32.8,15V29.23c0,1.14,0,2.29,0,3.44H30a12,12,0,0,1-.14-1.45C29.21,32.3,28.07,33,26.16,33,23,33,21,30.42,21,26.59s2.12-6.6,5.6-6.6c1.92,0,2.88.72,3.18,1.32V15ZM24.12,26.5c0,2.61,1.1,4,2.87,4,2.54,0,2.93-2,2.93-4.12,0-2.34-.39-4-2.82-4C25.17,22.42,24.12,23.94,24.12,26.5Z"/></g></svg>