<?xml version="1.0" ?><svg viewBox="0 0 88 88" xmlns="http://www.w3.org/2000/svg"><title/><g data-name="Graphic Tool" id="Graphic_Tool"><path d="M8,86a1.0029,1.0029,0,0,0,1,1h6a1.0029,1.0029,0,0,0,1-1V83H8Z"/><rect height="2" width="12" x="6" y="72"/><rect height="47" width="12" x="6" y="23"/><rect height="2" width="12" x="6" y="19"/><path d="M17.5538,17,13,9.714V6a1,1,0,0,0-2,0V9.714L6.4462,17Z"/><path d="M6,76H5V53a3.0033,3.0033,0,0,0-3-3,1,1,0,0,0,0,2,1.0009,1.0009,0,0,1,1,1V77a1,1,0,0,0,1,1H6v2a1,1,0,0,0,1,1H17a1,1,0,0,0,1-1V76H6Z"/><path d="M38,40H37V51.1843A2.995,2.995,0,0,1,39,54v1H51V53A13.0147,13.0147,0,0,0,38,40Z"/><path d="M36,53a1.0009,1.0009,0,0,0-1,1v4a1,1,0,0,0,2,0V54A1.0009,1.0009,0,0,0,36,53Z"/><path d="M33,54a2.995,2.995,0,0,1,2-2.8157V40H34A13.0147,13.0147,0,0,0,21,53v2H33Z"/><path d="M39,58a2.995,2.995,0,0,1-2,2.8157V63a1,1,0,0,1-2,0V60.8157A2.995,2.995,0,0,1,33,58V57H21V72a15,15,0,0,0,30,0V57H39Z"/><rect height="20" rx="1" ry="1" width="6" x="21" y="18"/><path d="M37,34V22a1,1,0,0,0-1-1H29v3h3a1,1,0,0,1,0,2H29v4h3a1,1,0,0,1,0,2H29v3h7A1,1,0,0,0,37,34Z"/><rect height="54" width="5" x="61" y="23"/><rect height="54" width="5" x="54" y="23"/><rect height="2" width="12" x="54" y="19"/><path d="M63,10H57a3.0033,3.0033,0,0,0-3,3v4H66V13A3.0033,3.0033,0,0,0,63,10Z"/><path d="M59.1523,86.53a.9992.9992,0,0,0,1.6954,0L65.5538,79H54.4462Z"/><path d="M86,1H83V87h3a1,1,0,0,0,1-1V2A1,1,0,0,0,86,1Z"/><path d="M69,2V7h5a1,1,0,0,1,0,2H69v4h5a1,1,0,0,1,0,2H69v4h5a1,1,0,0,1,0,2H69v4h5a1,1,0,0,1,0,2H69v4h5a1,1,0,0,1,0,2H69v4h5a1,1,0,0,1,0,2H69v4h5a1,1,0,0,1,0,2H69v4h5a1,1,0,0,1,0,2H69v4h5a1,1,0,0,1,0,2H69v4h5a1,1,0,0,1,0,2H69v4h5a1,1,0,0,1,0,2H69v4h5a1,1,0,0,1,0,2H69v4h5a1,1,0,0,1,0,2H69v5a1,1,0,0,0,1,1H81V1H70A1,1,0,0,0,69,2Z"/></g></svg>