<?xml version="1.0" ?><svg viewBox="0 0 512 512" xmlns="http://www.w3.org/2000/svg"><g id="Rolling_Pin"><path d="M440.7073,105.8774a35.8459,35.8459,0,0,0-71.25-4.2373c-1.0684,6.9575-4.2568,12.3648-9.4775,16.07a4.9987,4.9987,0,0,0-.6446,7.61l28.169,28.2124A5,5,0,0,0,391.0423,155c.122,0,.2461-.0044.3691-.0137a5.002,5.002,0,0,0,3.6514-2.0132c4.0976-5.541,10.1367-9.5664,15.7617-10.5053a35.5864,35.5864,0,0,0,19.4043-10.001A35.9781,35.9781,0,0,0,440.7073,105.8774Z"/><path d="M124.4954,358.4673a5,5,0,0,0-7.5586.56c-4.0962,5.5406-10.1353,9.5655-15.76,10.5049a35.59,35.59,0,0,0-19.4057,10.001,35.9771,35.9771,0,0,0-10.478,26.59,35.8456,35.8456,0,0,0,71.25,4.2369c1.0688-6.9581,4.2578-12.3648,9.479-16.07a5,5,0,0,0,.644-7.61Z"/><path d="M325.6233,113.6274a10.0006,10.0006,0,0,0-14.1426,0L113.7176,311.3906a10.0014,10.0014,0,0,0,0,14.1426l72.7495,72.7495a10.001,10.001,0,0,0,14.1425,0L398.3733,200.52a10.0011,10.0011,0,0,0,0-14.1426Z"/></g></svg>